<mxfile host="app.diagrams.net" modified="2024-03-19T03:22:38.279Z" agent="Mozilla/5.0 (Windows NT 10.0; Win64; x64) AppleWebKit/537.36 (KHTML, like Gecko) Chrome/122.0.0.0 Safari/537.36" etag="6ejZ2kFJm1FBhutNrt6g" version="24.0.4" type="github">
  <diagram name="Page-1" id="-v-v0UjTu-cKlCj0ydJt">
    <mxGraphModel dx="1434" dy="814" grid="1" gridSize="10" guides="1" tooltips="1" connect="1" arrows="1" fold="1" page="1" pageScale="1" pageWidth="850" pageHeight="1100" math="0" shadow="0">
      <root>
        <mxCell id="0" />
        <mxCell id="1" parent="0" />
        <mxCell id="VvkDmHgtMDMKBXO0bv3q-11" value="User Console" style="sketch=0;pointerEvents=1;shadow=0;dashed=0;html=1;strokeColor=none;fillColor=#434445;aspect=fixed;labelPosition=center;verticalLabelPosition=bottom;verticalAlign=top;align=center;outlineConnect=0;shape=mxgraph.vvd.monitor;" vertex="1" parent="1">
          <mxGeometry x="235.14" y="1600" width="276.25" height="256.9" as="geometry" />
        </mxCell>
        <mxCell id="dY09yrTRymv2y340_UgG-1" value="&lt;p style=&quot;line-height: 110%;&quot;&gt;&lt;br&gt;&lt;/p&gt;" style="rounded=0;whiteSpace=wrap;html=1;fillColor=#ffe6cc;strokeColor=#d79b00;" parent="1" vertex="1">
          <mxGeometry x="212.2" y="1000" width="240" height="380" as="geometry" />
        </mxCell>
        <mxCell id="dY09yrTRymv2y340_UgG-2" value="Peripheral&lt;br&gt;Connection(s)" style="sketch=0;pointerEvents=1;shadow=0;dashed=0;html=1;strokeColor=none;fillColor=#434445;aspect=fixed;labelPosition=center;verticalLabelPosition=bottom;verticalAlign=top;align=center;outlineConnect=0;shape=mxgraph.vvd.machine;" parent="1" vertex="1">
          <mxGeometry x="453.37000000000006" y="1149" width="50.84" height="124" as="geometry" />
        </mxCell>
        <mxCell id="dY09yrTRymv2y340_UgG-3" value="LAN &lt;br&gt;DTLS (AES Encryption)" style="edgeStyle=orthogonalEdgeStyle;rounded=0;orthogonalLoop=1;jettySize=auto;html=1;startArrow=classic;startFill=1;" parent="1" source="dY09yrTRymv2y340_UgG-5" edge="1">
          <mxGeometry x="-0.3808" y="-13" relative="1" as="geometry">
            <mxPoint x="232.2" y="1035" as="targetPoint" />
            <Array as="points">
              <mxPoint x="281.2" y="1035" />
            </Array>
            <mxPoint as="offset" />
          </mxGeometry>
        </mxCell>
        <mxCell id="dY09yrTRymv2y340_UgG-4" value="Data partitioning &lt;br&gt;SFTP/ SCP" style="edgeStyle=orthogonalEdgeStyle;rounded=0;orthogonalLoop=1;jettySize=auto;html=1;" parent="1" source="dY09yrTRymv2y340_UgG-5" edge="1">
          <mxGeometry x="-0.3223" relative="1" as="geometry">
            <mxPoint x="224.2" y="1353" as="targetPoint" />
            <Array as="points">
              <mxPoint x="274.2" y="1353" />
            </Array>
            <mxPoint as="offset" />
          </mxGeometry>
        </mxCell>
        <mxCell id="dY09yrTRymv2y340_UgG-5" value="User Console" style="sketch=0;pointerEvents=1;shadow=0;dashed=0;html=1;strokeColor=none;fillColor=#434445;aspect=fixed;labelPosition=center;verticalLabelPosition=bottom;verticalAlign=top;align=center;outlineConnect=0;shape=mxgraph.vvd.monitor;" parent="1" vertex="1">
          <mxGeometry x="229.2" y="1185" width="104.3" height="97" as="geometry" />
        </mxCell>
        <mxCell id="dY09yrTRymv2y340_UgG-6" value="SSH" style="edgeStyle=orthogonalEdgeStyle;rounded=0;orthogonalLoop=1;jettySize=auto;html=1;startArrow=classic;startFill=1;" parent="1" source="dY09yrTRymv2y340_UgG-5" target="dY09yrTRymv2y340_UgG-2" edge="1">
          <mxGeometry x="0.0128" relative="1" as="geometry">
            <mxPoint x="495.19882352941175" y="1185" as="sourcePoint" />
            <mxPoint x="563.3700000000001" y="1095" as="targetPoint" />
            <Array as="points">
              <mxPoint x="439.2" y="1228" />
              <mxPoint x="439.2" y="1228" />
            </Array>
            <mxPoint as="offset" />
          </mxGeometry>
        </mxCell>
        <mxCell id="dY09yrTRymv2y340_UgG-7" value="Private Network &lt;br&gt;(Cellular Hotspot)" style="edgeStyle=orthogonalEdgeStyle;rounded=0;orthogonalLoop=1;jettySize=auto;html=1;startArrow=classic;startFill=1;endArrow=none;endFill=0;" parent="1" source="dY09yrTRymv2y340_UgG-9" edge="1">
          <mxGeometry x="0.1505" y="-20" relative="1" as="geometry">
            <mxPoint x="227.94" y="110" as="targetPoint" />
            <Array as="points">
              <mxPoint x="312.94" y="110" />
              <mxPoint x="228.94" y="110" />
            </Array>
            <mxPoint as="offset" />
          </mxGeometry>
        </mxCell>
        <mxCell id="dY09yrTRymv2y340_UgG-8" value="Web Real Time Communication" style="edgeStyle=orthogonalEdgeStyle;rounded=0;orthogonalLoop=1;jettySize=auto;html=1;" parent="1" source="dY09yrTRymv2y340_UgG-9" edge="1">
          <mxGeometry x="0.284" y="-16" relative="1" as="geometry">
            <mxPoint x="238.94" y="390" as="targetPoint" />
            <Array as="points">
              <mxPoint x="312.94" y="390" />
            </Array>
            <mxPoint x="16" y="16" as="offset" />
          </mxGeometry>
        </mxCell>
        <mxCell id="dY09yrTRymv2y340_UgG-9" value="User Console" style="sketch=0;pointerEvents=1;shadow=0;dashed=0;html=1;strokeColor=none;fillColor=#434445;aspect=fixed;labelPosition=center;verticalLabelPosition=bottom;verticalAlign=top;align=center;outlineConnect=0;shape=mxgraph.vvd.monitor;" parent="1" vertex="1">
          <mxGeometry x="260.94" y="160" width="104.3" height="97" as="geometry" />
        </mxCell>
        <mxCell id="dY09yrTRymv2y340_UgG-10" value="Port Switch" style="edgeStyle=orthogonalEdgeStyle;rounded=0;orthogonalLoop=1;jettySize=auto;html=1;startArrow=classic;startFill=1;" parent="1" source="dY09yrTRymv2y340_UgG-9" target="dY09yrTRymv2y340_UgG-26" edge="1">
          <mxGeometry relative="1" as="geometry">
            <mxPoint x="526.9388235294118" y="220" as="sourcePoint" />
            <mxPoint x="484.94" y="246" as="targetPoint" />
            <Array as="points" />
          </mxGeometry>
        </mxCell>
        <mxCell id="dY09yrTRymv2y340_UgG-11" value="Patient Data&lt;br&gt;(JSON format)&lt;br&gt;&lt;div style=&quot;text-align: left;&quot;&gt;&lt;span style=&quot;background-color: initial;&quot;&gt;- Patient Details&lt;/span&gt;&lt;/div&gt;&lt;div style=&quot;text-align: left;&quot;&gt;&lt;span style=&quot;background-color: initial;&quot;&gt;- Surgery Details&lt;/span&gt;&lt;/div&gt;&lt;div style=&quot;text-align: left;&quot;&gt;&lt;span style=&quot;background-color: initial;&quot;&gt;- Notes&lt;/span&gt;&lt;/div&gt;&lt;div style=&quot;text-align: left;&quot;&gt;&lt;span style=&quot;background-color: initial;&quot;&gt;- Media Attachment&lt;/span&gt;&lt;/div&gt;" style="text;html=1;align=center;verticalAlign=middle;whiteSpace=wrap;rounded=0;" parent="1" vertex="1">
          <mxGeometry x="318.94" y="283" width="100" height="90" as="geometry" />
        </mxCell>
        <mxCell id="dY09yrTRymv2y340_UgG-12" value="Network/ Communication Layer" style="text;html=1;align=center;verticalAlign=middle;whiteSpace=wrap;rounded=0;" parent="1" vertex="1">
          <mxGeometry x="263.7" y="1000" width="137" height="30" as="geometry" />
        </mxCell>
        <mxCell id="dY09yrTRymv2y340_UgG-13" value="&lt;b&gt;Session Manager&lt;/b&gt;" style="rounded=0;whiteSpace=wrap;html=1;" parent="1" vertex="1">
          <mxGeometry x="292.64" y="577" width="115" height="24" as="geometry" />
        </mxCell>
        <mxCell id="dY09yrTRymv2y340_UgG-14" value="Authentication and Authorization Server" style="rounded=0;whiteSpace=wrap;html=1;" parent="1" vertex="1">
          <mxGeometry x="220.14" y="611" width="120" height="39" as="geometry" />
        </mxCell>
        <mxCell id="dY09yrTRymv2y340_UgG-15" value="Firewall Rules and Policy Server&amp;nbsp;" style="rounded=0;whiteSpace=wrap;html=1;" parent="1" vertex="1">
          <mxGeometry x="220.14" y="666" width="120" height="39" as="geometry" />
        </mxCell>
        <mxCell id="dY09yrTRymv2y340_UgG-16" value="Certification Authority" style="rounded=0;whiteSpace=wrap;html=1;" parent="1" vertex="1">
          <mxGeometry x="360.14" y="611" width="120" height="39" as="geometry" />
        </mxCell>
        <mxCell id="dY09yrTRymv2y340_UgG-17" value="Distribution Registry" style="rounded=0;whiteSpace=wrap;html=1;" parent="1" vertex="1">
          <mxGeometry x="360.14" y="666" width="120" height="39" as="geometry" />
        </mxCell>
        <mxCell id="dY09yrTRymv2y340_UgG-18" value="Key Distribution Server" style="rounded=0;whiteSpace=wrap;html=1;" parent="1" vertex="1">
          <mxGeometry x="220.14" y="710.5" width="120" height="39" as="geometry" />
        </mxCell>
        <mxCell id="dY09yrTRymv2y340_UgG-19" value="Local Secured Network" style="rounded=0;whiteSpace=wrap;html=1;fillColor=#f8cecc;strokeColor=#b85450;" parent="1" vertex="1">
          <mxGeometry x="360.14" y="713" width="120" height="34" as="geometry" />
        </mxCell>
        <mxCell id="dY09yrTRymv2y340_UgG-20" value="Private VPN with RSA Encryption" style="edgeStyle=orthogonalEdgeStyle;rounded=0;orthogonalLoop=1;jettySize=auto;html=1;startArrow=classic;startFill=1;endArrow=none;endFill=0;" parent="1" source="dY09yrTRymv2y340_UgG-22" edge="1">
          <mxGeometry x="-0.245" relative="1" as="geometry">
            <mxPoint x="252.2" y="500" as="targetPoint" />
            <Array as="points">
              <mxPoint x="356.2" y="500" />
              <mxPoint x="254.2" y="500" />
            </Array>
            <mxPoint as="offset" />
          </mxGeometry>
        </mxCell>
        <mxCell id="dY09yrTRymv2y340_UgG-21" value="SFTP using RSA Encryption" style="edgeStyle=orthogonalEdgeStyle;rounded=0;orthogonalLoop=1;jettySize=auto;html=1;" parent="1" source="dY09yrTRymv2y340_UgG-22" edge="1">
          <mxGeometry x="-0.233" y="10" relative="1" as="geometry">
            <mxPoint x="244.2" y="880" as="targetPoint" />
            <Array as="points">
              <mxPoint x="314.2" y="880" />
            </Array>
            <mxPoint as="offset" />
          </mxGeometry>
        </mxCell>
        <mxCell id="dY09yrTRymv2y340_UgG-22" value="User Console" style="sketch=0;pointerEvents=1;shadow=0;dashed=0;html=1;strokeColor=none;fillColor=#434445;aspect=fixed;labelPosition=center;verticalLabelPosition=bottom;verticalAlign=top;align=center;outlineConnect=0;shape=mxgraph.vvd.monitor;" parent="1" vertex="1">
          <mxGeometry x="212.2" y="570" width="276.25" height="256.9" as="geometry" />
        </mxCell>
        <mxCell id="dY09yrTRymv2y340_UgG-23" value="&lt;b&gt;&lt;font style=&quot;font-size: 26px;&quot;&gt;Config1&lt;/font&gt;&lt;/b&gt;" style="text;html=1;align=center;verticalAlign=middle;whiteSpace=wrap;rounded=0;" parent="1" vertex="1">
          <mxGeometry x="372.59000000000003" y="30" width="60" height="30" as="geometry" />
        </mxCell>
        <mxCell id="dY09yrTRymv2y340_UgG-24" value="&lt;b&gt;&lt;font style=&quot;font-size: 26px;&quot;&gt;Config2&lt;br&gt;&lt;/font&gt;&lt;/b&gt;" style="text;html=1;align=center;verticalAlign=middle;whiteSpace=wrap;rounded=0;" parent="1" vertex="1">
          <mxGeometry x="358.59000000000003" y="453" width="60" height="30" as="geometry" />
        </mxCell>
        <mxCell id="dY09yrTRymv2y340_UgG-25" value="&lt;b&gt;&lt;font style=&quot;font-size: 26px;&quot;&gt;Config3&lt;/font&gt;&lt;/b&gt;" style="text;html=1;align=center;verticalAlign=middle;whiteSpace=wrap;rounded=0;" parent="1" vertex="1">
          <mxGeometry x="341" y="960" width="60" height="30" as="geometry" />
        </mxCell>
        <mxCell id="dY09yrTRymv2y340_UgG-26" value="Peripheral&lt;br&gt;Connection(s)" style="sketch=0;pointerEvents=1;shadow=0;dashed=0;html=1;strokeColor=none;fillColor=#434445;aspect=fixed;labelPosition=center;verticalLabelPosition=bottom;verticalAlign=top;align=center;outlineConnect=0;shape=mxgraph.vvd.machine;" parent="1" vertex="1">
          <mxGeometry x="487.94" y="178" width="50.84" height="124" as="geometry" />
        </mxCell>
        <mxCell id="dY09yrTRymv2y340_UgG-27" value="Peripheral&lt;br&gt;Connection(s)" style="sketch=0;pointerEvents=1;shadow=0;dashed=0;html=1;strokeColor=none;fillColor=#434445;aspect=fixed;labelPosition=center;verticalLabelPosition=bottom;verticalAlign=top;align=center;outlineConnect=0;shape=mxgraph.vvd.machine;" parent="1" vertex="1">
          <mxGeometry x="542.14" y="544" width="50.84" height="124" as="geometry" />
        </mxCell>
        <mxCell id="dY09yrTRymv2y340_UgG-28" style="edgeStyle=orthogonalEdgeStyle;rounded=0;orthogonalLoop=1;jettySize=auto;html=1;startArrow=none;startFill=0;" parent="1" target="dY09yrTRymv2y340_UgG-27" edge="1">
          <mxGeometry relative="1" as="geometry">
            <mxPoint x="491.03000000000003" y="606" as="sourcePoint" />
            <mxPoint x="567.1400000000001" y="504" as="targetPoint" />
            <Array as="points">
              <mxPoint x="520.0300000000001" y="606" />
              <mxPoint x="520.0300000000001" y="606" />
            </Array>
          </mxGeometry>
        </mxCell>
        <mxCell id="dY09yrTRymv2y340_UgG-29" value="DVID/ &lt;br&gt;VGA ports" style="edgeStyle=orthogonalEdgeStyle;rounded=0;orthogonalLoop=1;jettySize=auto;html=1;fillColor=#f8cecc;strokeColor=#b85450;" parent="1" source="dY09yrTRymv2y340_UgG-27" edge="1">
          <mxGeometry x="-0.0126" y="30" relative="1" as="geometry">
            <mxPoint x="567.1400000000001" y="523.0588235294117" as="sourcePoint" />
            <Array as="points">
              <mxPoint x="520.0300000000001" y="634" />
              <mxPoint x="520.0300000000001" y="634" />
            </Array>
            <mxPoint x="491.03000000000003" y="634" as="targetPoint" />
            <mxPoint as="offset" />
          </mxGeometry>
        </mxCell>
        <mxCell id="VvkDmHgtMDMKBXO0bv3q-1" value="Patient Data&lt;br&gt;(JSON format)&lt;br&gt;&lt;div style=&quot;text-align: left;&quot;&gt;&lt;span style=&quot;background-color: initial;&quot;&gt;- Patient Details&lt;/span&gt;&lt;/div&gt;&lt;div style=&quot;text-align: left;&quot;&gt;&lt;span style=&quot;background-color: initial;&quot;&gt;- Surgery Details&lt;/span&gt;&lt;/div&gt;&lt;div style=&quot;text-align: left;&quot;&gt;&lt;span style=&quot;background-color: initial;&quot;&gt;- Notes&lt;/span&gt;&lt;/div&gt;&lt;div style=&quot;text-align: left;&quot;&gt;&lt;span style=&quot;background-color: initial;&quot;&gt;- Media Attachment&lt;/span&gt;&lt;/div&gt;" style="text;html=1;align=center;verticalAlign=middle;whiteSpace=wrap;rounded=0;" vertex="1" parent="1">
          <mxGeometry x="246.35" y="1920" width="100" height="90" as="geometry" />
        </mxCell>
        <mxCell id="VvkDmHgtMDMKBXO0bv3q-12" value="Ethernet" style="edgeStyle=orthogonalEdgeStyle;rounded=0;orthogonalLoop=1;jettySize=auto;html=1;startArrow=classic;startFill=1;" edge="1" parent="1" source="VvkDmHgtMDMKBXO0bv3q-2" target="VvkDmHgtMDMKBXO0bv3q-11">
          <mxGeometry relative="1" as="geometry" />
        </mxCell>
        <mxCell id="VvkDmHgtMDMKBXO0bv3q-2" value="Peripheral&lt;br&gt;Connection(s)" style="sketch=0;pointerEvents=1;shadow=0;dashed=0;html=1;strokeColor=none;fillColor=#434445;aspect=fixed;labelPosition=center;verticalLabelPosition=bottom;verticalAlign=top;align=center;outlineConnect=0;shape=mxgraph.vvd.machine;" vertex="1" parent="1">
          <mxGeometry x="595" y="1666.45" width="50.84" height="124" as="geometry" />
        </mxCell>
        <mxCell id="VvkDmHgtMDMKBXO0bv3q-3" value="&lt;b&gt;Session Manager&lt;/b&gt;" style="rounded=0;whiteSpace=wrap;html=1;" vertex="1" parent="1">
          <mxGeometry x="315.58" y="1607" width="115" height="24" as="geometry" />
        </mxCell>
        <mxCell id="VvkDmHgtMDMKBXO0bv3q-4" value="Authentication and Authorization Server" style="rounded=0;whiteSpace=wrap;html=1;" vertex="1" parent="1">
          <mxGeometry x="243.07999999999998" y="1641" width="120" height="39" as="geometry" />
        </mxCell>
        <mxCell id="VvkDmHgtMDMKBXO0bv3q-5" value="Firewall Rules and Policy Server&amp;nbsp;" style="rounded=0;whiteSpace=wrap;html=1;" vertex="1" parent="1">
          <mxGeometry x="243.07999999999998" y="1696" width="120" height="39" as="geometry" />
        </mxCell>
        <mxCell id="VvkDmHgtMDMKBXO0bv3q-6" value="Certification Authority" style="rounded=0;whiteSpace=wrap;html=1;" vertex="1" parent="1">
          <mxGeometry x="383.08" y="1641" width="120" height="39" as="geometry" />
        </mxCell>
        <mxCell id="VvkDmHgtMDMKBXO0bv3q-7" value="Distribution Registry" style="rounded=0;whiteSpace=wrap;html=1;" vertex="1" parent="1">
          <mxGeometry x="383.08" y="1696" width="120" height="39" as="geometry" />
        </mxCell>
        <mxCell id="VvkDmHgtMDMKBXO0bv3q-8" value="Key Distribution Server" style="rounded=0;whiteSpace=wrap;html=1;" vertex="1" parent="1">
          <mxGeometry x="243.07999999999998" y="1740.5" width="120" height="39" as="geometry" />
        </mxCell>
        <mxCell id="VvkDmHgtMDMKBXO0bv3q-9" value="Local Secured Network" style="rounded=0;whiteSpace=wrap;html=1;fillColor=#f8cecc;strokeColor=#b85450;" vertex="1" parent="1">
          <mxGeometry x="383.08" y="1743" width="120" height="34" as="geometry" />
        </mxCell>
        <mxCell id="VvkDmHgtMDMKBXO0bv3q-10" value="BLE w/ AES + FIPS" style="edgeStyle=orthogonalEdgeStyle;rounded=0;orthogonalLoop=1;jettySize=auto;html=1;" edge="1" parent="1" source="VvkDmHgtMDMKBXO0bv3q-11">
          <mxGeometry x="0.0281" y="-10" relative="1" as="geometry">
            <mxPoint x="205" y="1910" as="targetPoint" />
            <Array as="points">
              <mxPoint x="337.14" y="1910" />
            </Array>
            <mxPoint as="offset" />
          </mxGeometry>
        </mxCell>
        <mxCell id="VvkDmHgtMDMKBXO0bv3q-13" value="BLE w/ AES + FIPS Encryption" style="edgeStyle=orthogonalEdgeStyle;rounded=0;orthogonalLoop=1;jettySize=auto;html=1;startArrow=classic;startFill=1;endArrow=none;endFill=0;" edge="1" parent="1" source="VvkDmHgtMDMKBXO0bv3q-11">
          <mxGeometry x="-0.245" relative="1" as="geometry">
            <mxPoint x="215" y="1510" as="targetPoint" />
            <Array as="points">
              <mxPoint x="350" y="1510" />
            </Array>
            <mxPoint as="offset" />
            <mxPoint x="350.15" y="1580" as="sourcePoint" />
          </mxGeometry>
        </mxCell>
        <mxCell id="VvkDmHgtMDMKBXO0bv3q-14" value="&lt;span style=&quot;color: rgb(0, 0, 0); font-family: Helvetica; font-size: 12px; font-style: normal; font-variant-ligatures: normal; font-variant-caps: normal; font-weight: 400; letter-spacing: normal; orphans: 2; text-align: left; text-indent: -24px; text-transform: none; widows: 2; word-spacing: 0px; -webkit-text-stroke-width: 0px; white-space: normal; background-color: rgb(251, 251, 251); text-decoration-thickness: initial; text-decoration-style: initial; text-decoration-color: initial; display: inline !important; float: none;&quot;&gt;Nidhya, R., Kumar, M., Maheswar, R., &amp;amp; Pavithra, D. (2022). Security and privacy issues in smart healthcare system using internet of things.&lt;span&gt;&amp;nbsp;&lt;/span&gt;&lt;/span&gt;&lt;i style=&quot;color: rgb(0, 0, 0); font-family: Helvetica; font-size: 12px; font-variant-ligatures: normal; font-variant-caps: normal; font-weight: 400; letter-spacing: normal; orphans: 2; text-align: left; text-indent: -24px; text-transform: none; widows: 2; word-spacing: 0px; -webkit-text-stroke-width: 0px; white-space: normal; background-color: rgb(251, 251, 251); text-decoration-thickness: initial; text-decoration-style: initial; text-decoration-color: initial;&quot;&gt;IoT‐Enabled Smart Healthcare Systems, Services and Applications&lt;/i&gt;&lt;span style=&quot;color: rgb(0, 0, 0); font-family: Helvetica; font-size: 12px; font-style: normal; font-variant-ligatures: normal; font-variant-caps: normal; font-weight: 400; letter-spacing: normal; orphans: 2; text-align: left; text-indent: -24px; text-transform: none; widows: 2; word-spacing: 0px; -webkit-text-stroke-width: 0px; white-space: normal; background-color: rgb(251, 251, 251); text-decoration-thickness: initial; text-decoration-style: initial; text-decoration-color: initial; display: inline !important; float: none;&quot;&gt;, 63–85.&lt;/span&gt;" style="text;whiteSpace=wrap;html=1;" vertex="1" parent="1">
          <mxGeometry x="415.58" y="1440" width="420" height="70" as="geometry" />
        </mxCell>
      </root>
    </mxGraphModel>
  </diagram>
</mxfile>
